<svg width="335" height="53" viewBox="0 0 335 53" fill="none" xmlns="http://www.w3.org/2000/svg">
<rect width="335" height="53" rx="8" fill="#247BA0"/>
<path d="M79.0795 32.1431H76.4432L80.4602 20.5067H83.6307L87.642 32.1431H85.0057L82.0909 23.1658H82L79.0795 32.1431ZM78.9148 27.5692H85.142V29.4897H78.9148V27.5692ZM92.5341 32.3135C91.6402 32.3135 90.8712 32.1241 90.2273 31.7453C89.5871 31.3628 89.0947 30.8325 88.75 30.1544C88.4091 29.4764 88.2386 28.6961 88.2386 27.8135C88.2386 26.9196 88.411 26.1355 88.7557 25.4612C89.1042 24.7832 89.5985 24.2548 90.2386 23.876C90.8788 23.4934 91.6402 23.3022 92.5227 23.3022C93.2841 23.3022 93.9508 23.4404 94.5227 23.7169C95.0947 23.9934 95.5473 24.3817 95.8807 24.8817C96.214 25.3817 96.3977 25.9688 96.4318 26.6431H94.1477C94.0833 26.2075 93.9129 25.8571 93.6364 25.5919C93.3636 25.323 93.0057 25.1885 92.5625 25.1885C92.1875 25.1885 91.8598 25.2908 91.5795 25.4953C91.303 25.6961 91.0871 25.9897 90.9318 26.376C90.7765 26.7624 90.6989 27.2302 90.6989 27.7794C90.6989 28.3362 90.7746 28.8097 90.9261 29.1999C91.0814 29.59 91.2992 29.8874 91.5795 30.0919C91.8598 30.2965 92.1875 30.3987 92.5625 30.3987C92.839 30.3987 93.0871 30.3419 93.3068 30.2283C93.5303 30.1147 93.714 29.9499 93.858 29.734C94.0057 29.5143 94.1023 29.251 94.1477 28.9442H96.4318C96.3939 29.6109 96.2121 30.198 95.8864 30.7056C95.5644 31.2094 95.1193 31.6033 94.5511 31.8874C93.983 32.1715 93.3106 32.3135 92.5341 32.3135ZM101.959 32.3135C101.061 32.3135 100.288 32.1317 99.6406 31.7681C98.9967 31.4006 98.5005 30.8817 98.152 30.2112C97.8035 29.537 97.6293 28.7397 97.6293 27.8192C97.6293 26.9215 97.8035 26.1336 98.152 25.4556C98.5005 24.7775 98.991 24.2491 99.6236 23.8703C100.26 23.4916 101.006 23.3022 101.862 23.3022C102.438 23.3022 102.974 23.395 103.47 23.5806C103.97 23.7624 104.406 24.037 104.777 24.4044C105.152 24.7719 105.444 25.234 105.652 25.7908C105.86 26.3438 105.964 26.9916 105.964 27.734V28.3987H98.5952V26.8987H103.686C103.686 26.5503 103.61 26.2416 103.459 25.9726C103.307 25.7037 103.097 25.4934 102.828 25.3419C102.563 25.1866 102.254 25.109 101.902 25.109C101.535 25.109 101.209 25.1942 100.925 25.3647C100.644 25.5313 100.425 25.7567 100.266 26.0408C100.107 26.3211 100.025 26.6336 100.021 26.9783V28.4044C100.021 28.8362 100.101 29.2094 100.26 29.5237C100.423 29.8381 100.652 30.0806 100.947 30.251C101.243 30.4215 101.593 30.5067 101.999 30.5067C102.268 30.5067 102.514 30.4688 102.737 30.3931C102.961 30.3173 103.152 30.2037 103.311 30.0522C103.47 29.9006 103.591 29.715 103.675 29.4953L105.913 29.6431C105.8 30.1809 105.567 30.6506 105.214 31.0522C104.866 31.4499 104.415 31.7605 103.862 31.984C103.313 32.2037 102.679 32.3135 101.959 32.3135ZM114.805 25.9044L112.589 26.0408C112.552 25.8514 112.47 25.6809 112.345 25.5294C112.22 25.3741 112.055 25.251 111.851 25.1601C111.65 25.0654 111.41 25.0181 111.129 25.0181C110.754 25.0181 110.438 25.0976 110.18 25.2567C109.923 25.412 109.794 25.6203 109.794 25.8817C109.794 26.09 109.877 26.2662 110.044 26.4101C110.211 26.5541 110.497 26.6696 110.902 26.7567L112.482 27.0749C113.33 27.2491 113.963 27.5294 114.379 27.9158C114.796 28.3022 115.004 28.8097 115.004 29.4385C115.004 30.0105 114.836 30.5124 114.499 30.9442C114.165 31.376 113.707 31.7131 113.124 31.9556C112.544 32.1942 111.875 32.3135 111.118 32.3135C109.963 32.3135 109.042 32.073 108.357 31.5919C107.675 31.1071 107.275 30.448 107.158 29.6147L109.538 29.4897C109.61 29.8419 109.785 30.1109 110.061 30.2965C110.338 30.4783 110.692 30.5692 111.124 30.5692C111.548 30.5692 111.889 30.4878 112.146 30.3249C112.408 30.1582 112.54 29.9442 112.544 29.6828C112.54 29.4631 112.447 29.2832 112.266 29.1431C112.084 28.9991 111.804 28.8893 111.425 28.8135L109.913 28.5124C109.061 28.3419 108.427 28.0465 108.01 27.626C107.597 27.2056 107.391 26.6696 107.391 26.0181C107.391 25.4575 107.542 24.9745 107.845 24.5692C108.152 24.1639 108.582 23.8514 109.135 23.6317C109.692 23.412 110.343 23.3022 111.089 23.3022C112.192 23.3022 113.059 23.5351 113.692 24.001C114.328 24.4669 114.699 25.1014 114.805 25.9044ZM123.79 25.9044L121.574 26.0408C121.536 25.8514 121.455 25.6809 121.33 25.5294C121.205 25.3741 121.04 25.251 120.835 25.1601C120.634 25.0654 120.394 25.0181 120.114 25.0181C119.739 25.0181 119.422 25.0976 119.165 25.2567C118.907 25.412 118.778 25.6203 118.778 25.8817C118.778 26.09 118.862 26.2662 119.028 26.4101C119.195 26.5541 119.481 26.6696 119.886 26.7567L121.466 27.0749C122.314 27.2491 122.947 27.5294 123.364 27.9158C123.78 28.3022 123.989 28.8097 123.989 29.4385C123.989 30.0105 123.82 30.5124 123.483 30.9442C123.15 31.376 122.691 31.7131 122.108 31.9556C121.528 32.1942 120.86 32.3135 120.102 32.3135C118.947 32.3135 118.027 32.073 117.341 31.5919C116.659 31.1071 116.259 30.448 116.142 29.6147L118.523 29.4897C118.595 29.8419 118.769 30.1109 119.045 30.2965C119.322 30.4783 119.676 30.5692 120.108 30.5692C120.532 30.5692 120.873 30.4878 121.131 30.3249C121.392 30.1582 121.525 29.9442 121.528 29.6828C121.525 29.4631 121.432 29.2832 121.25 29.1431C121.068 28.9991 120.788 28.8893 120.409 28.8135L118.898 28.5124C118.045 28.3419 117.411 28.0465 116.994 27.626C116.581 27.2056 116.375 26.6696 116.375 26.0181C116.375 25.4575 116.527 24.9745 116.83 24.5692C117.136 24.1639 117.566 23.8514 118.119 23.6317C118.676 23.412 119.328 23.3022 120.074 23.3022C121.176 23.3022 122.044 23.5351 122.676 24.001C123.313 24.4669 123.684 25.1014 123.79 25.9044ZM129.49 32.3135C128.592 32.3135 127.82 32.1317 127.172 31.7681C126.528 31.4006 126.032 30.8817 125.683 30.2112C125.335 29.537 125.161 28.7397 125.161 27.8192C125.161 26.9215 125.335 26.1336 125.683 25.4556C126.032 24.7775 126.522 24.2491 127.155 23.8703C127.791 23.4916 128.537 23.3022 129.393 23.3022C129.969 23.3022 130.505 23.395 131.001 23.5806C131.501 23.7624 131.937 24.037 132.308 24.4044C132.683 24.7719 132.975 25.234 133.183 25.7908C133.392 26.3438 133.496 26.9916 133.496 27.734V28.3987H126.126V26.8987H131.217C131.217 26.5503 131.142 26.2416 130.99 25.9726C130.839 25.7037 130.628 25.4934 130.359 25.3419C130.094 25.1866 129.786 25.109 129.433 25.109C129.066 25.109 128.74 25.1942 128.456 25.3647C128.176 25.5313 127.956 25.7567 127.797 26.0408C127.638 26.3211 127.556 26.6336 127.553 26.9783V28.4044C127.553 28.8362 127.632 29.2094 127.791 29.5237C127.954 29.8381 128.183 30.0806 128.479 30.251C128.774 30.4215 129.125 30.5067 129.53 30.5067C129.799 30.5067 130.045 30.4688 130.268 30.3931C130.492 30.3173 130.683 30.2037 130.842 30.0522C131.001 29.9006 131.123 29.715 131.206 29.4953L133.445 29.6431C133.331 30.1809 133.098 30.6506 132.746 31.0522C132.397 31.4499 131.946 31.7605 131.393 31.984C130.844 32.2037 130.21 32.3135 129.49 32.3135ZM141.267 32.3078C140.71 32.3078 140.214 32.2112 139.778 32.0181C139.343 31.8211 138.998 31.5313 138.744 31.1487C138.494 30.7624 138.369 30.2813 138.369 29.7056C138.369 29.2207 138.458 28.8135 138.636 28.484C138.814 28.1544 139.057 27.8893 139.364 27.6885C139.67 27.4878 140.019 27.3362 140.409 27.234C140.803 27.1317 141.216 27.0597 141.648 27.0181C142.155 26.965 142.564 26.9158 142.875 26.8703C143.186 26.8211 143.411 26.7491 143.551 26.6544C143.691 26.5597 143.761 26.4196 143.761 26.234V26.1999C143.761 25.84 143.648 25.5616 143.42 25.3647C143.197 25.1677 142.879 25.0692 142.466 25.0692C142.03 25.0692 141.684 25.1658 141.426 25.359C141.169 25.5484 140.998 25.787 140.915 26.0749L138.676 25.8931C138.79 25.3628 139.013 24.9044 139.347 24.5181C139.68 24.1279 140.11 23.8287 140.636 23.6203C141.167 23.4082 141.78 23.3022 142.477 23.3022C142.962 23.3022 143.426 23.359 143.869 23.4726C144.316 23.5862 144.712 23.7624 145.057 24.001C145.405 24.2397 145.68 24.5465 145.881 24.9215C146.081 25.2927 146.182 25.7378 146.182 26.2567V32.1431H143.886V30.9328H143.818C143.678 31.2056 143.491 31.4461 143.256 31.6544C143.021 31.859 142.739 32.02 142.409 32.1374C142.08 32.251 141.699 32.3078 141.267 32.3078ZM141.96 30.6374C142.316 30.6374 142.631 30.5673 142.903 30.4272C143.176 30.2832 143.39 30.09 143.545 29.8476C143.701 29.6052 143.778 29.3306 143.778 29.0237V28.0976C143.703 28.1469 143.598 28.1923 143.466 28.234C143.337 28.2719 143.191 28.3078 143.028 28.3419C142.866 28.3722 142.703 28.4006 142.54 28.4272C142.377 28.4499 142.229 28.4707 142.097 28.4897C141.813 28.5313 141.564 28.5976 141.352 28.6885C141.14 28.7794 140.975 28.9025 140.858 29.0578C140.741 29.2094 140.682 29.3987 140.682 29.626C140.682 29.9556 140.801 30.2075 141.04 30.3817C141.282 30.5522 141.589 30.6374 141.96 30.6374ZM155.74 32.3135C154.842 32.3135 154.07 32.1317 153.422 31.7681C152.778 31.4006 152.282 30.8817 151.933 30.2112C151.585 29.537 151.411 28.7397 151.411 27.8192C151.411 26.9215 151.585 26.1336 151.933 25.4556C152.282 24.7775 152.772 24.2491 153.405 23.8703C154.041 23.4916 154.787 23.3022 155.643 23.3022C156.219 23.3022 156.755 23.395 157.251 23.5806C157.751 23.7624 158.187 24.037 158.558 24.4044C158.933 24.7719 159.225 25.234 159.433 25.7908C159.642 26.3438 159.746 26.9916 159.746 27.734V28.3987H152.376V26.8987H157.467C157.467 26.5503 157.392 26.2416 157.24 25.9726C157.089 25.7037 156.878 25.4934 156.609 25.3419C156.344 25.1866 156.036 25.109 155.683 25.109C155.316 25.109 154.99 25.1942 154.706 25.3647C154.426 25.5313 154.206 25.7567 154.047 26.0408C153.888 26.3211 153.806 26.6336 153.803 26.9783V28.4044C153.803 28.8362 153.882 29.2094 154.041 29.5237C154.204 29.8381 154.433 30.0806 154.729 30.251C155.024 30.4215 155.375 30.5067 155.78 30.5067C156.049 30.5067 156.295 30.4688 156.518 30.3931C156.742 30.3173 156.933 30.2037 157.092 30.0522C157.251 29.9006 157.373 29.715 157.456 29.4953L159.695 29.6431C159.581 30.1809 159.348 30.6506 158.996 31.0522C158.647 31.4499 158.196 31.7605 157.643 31.984C157.094 32.2037 156.46 32.3135 155.74 32.3135ZM161.325 32.1431V23.4158H163.632V24.9556H163.734C163.916 24.4442 164.219 24.0408 164.643 23.7453C165.068 23.4499 165.575 23.3022 166.166 23.3022C166.765 23.3022 167.274 23.4518 167.695 23.751C168.115 24.0465 168.395 24.448 168.536 24.9556H168.626C168.804 24.4556 169.126 24.0559 169.592 23.7567C170.062 23.4537 170.617 23.3022 171.257 23.3022C172.071 23.3022 172.732 23.5616 173.24 24.0806C173.751 24.5957 174.007 25.3268 174.007 26.2737V32.1431H171.592V26.751C171.592 26.2662 171.464 25.9025 171.206 25.6601C170.948 25.4177 170.626 25.2965 170.24 25.2965C169.801 25.2965 169.458 25.4366 169.212 25.7169C168.965 25.9934 168.842 26.359 168.842 26.8135V32.1431H166.496V26.6999C166.496 26.2719 166.373 25.9309 166.126 25.6772C165.884 25.4234 165.564 25.2965 165.166 25.2965C164.897 25.2965 164.655 25.3647 164.439 25.501C164.227 25.6336 164.058 25.8211 163.933 26.0635C163.808 26.3022 163.746 26.5825 163.746 26.9044V32.1431H161.325ZM179.896 32.3135C178.999 32.3135 178.226 32.1317 177.578 31.7681C176.934 31.4006 176.438 30.8817 176.089 30.2112C175.741 29.537 175.567 28.7397 175.567 27.8192C175.567 26.9215 175.741 26.1336 176.089 25.4556C176.438 24.7775 176.929 24.2491 177.561 23.8703C178.197 23.4916 178.944 23.3022 179.8 23.3022C180.375 23.3022 180.911 23.395 181.408 23.5806C181.908 23.7624 182.343 24.037 182.714 24.4044C183.089 24.7719 183.381 25.234 183.589 25.7908C183.798 26.3438 183.902 26.9916 183.902 27.734V28.3987H176.533V26.8987H181.624C181.624 26.5503 181.548 26.2416 181.396 25.9726C181.245 25.7037 181.035 25.4934 180.766 25.3419C180.5 25.1866 180.192 25.109 179.839 25.109C179.472 25.109 179.146 25.1942 178.862 25.3647C178.582 25.5313 178.362 25.7567 178.203 26.0408C178.044 26.3211 177.963 26.6336 177.959 26.9783V28.4044C177.959 28.8362 178.038 29.2094 178.197 29.5237C178.36 29.8381 178.589 30.0806 178.885 30.251C179.18 30.4215 179.531 30.5067 179.936 30.5067C180.205 30.5067 180.451 30.4688 180.675 30.3931C180.898 30.3173 181.089 30.2037 181.249 30.0522C181.408 29.9006 181.529 29.715 181.612 29.4953L183.851 29.6431C183.737 30.1809 183.504 30.6506 183.152 31.0522C182.804 31.4499 182.353 31.7605 181.8 31.984C181.25 32.2037 180.616 32.3135 179.896 32.3135ZM187.902 27.0976V32.1431H185.482V23.4158H187.788V24.9556H187.891C188.084 24.448 188.408 24.0465 188.862 23.751C189.317 23.4518 189.868 23.3022 190.516 23.3022C191.122 23.3022 191.65 23.4347 192.101 23.6999C192.552 23.965 192.902 24.3438 193.152 24.8362C193.402 25.3249 193.527 25.9082 193.527 26.5862V32.1431H191.107V27.0181C191.11 26.484 190.974 26.0673 190.697 25.7681C190.421 25.465 190.04 25.3135 189.555 25.3135C189.23 25.3135 188.942 25.3836 188.692 25.5237C188.446 25.6639 188.252 25.8684 188.112 26.1374C187.976 26.4025 187.906 26.7226 187.902 27.0976ZM200.077 23.4158V25.234H194.821V23.4158H200.077ZM196.014 21.3249H198.435V29.4612C198.435 29.6847 198.469 29.859 198.537 29.984C198.605 30.1052 198.7 30.1904 198.821 30.2397C198.946 30.2889 199.09 30.3135 199.253 30.3135C199.366 30.3135 199.48 30.3041 199.594 30.2851C199.707 30.2624 199.795 30.2453 199.855 30.234L200.236 32.0351C200.115 32.073 199.944 32.1166 199.724 32.1658C199.505 32.2188 199.238 32.251 198.923 32.2624C198.34 32.2851 197.829 32.2075 197.389 32.0294C196.954 31.8514 196.615 31.5749 196.372 31.1999C196.13 30.8249 196.01 30.3514 196.014 29.7794V21.3249ZM204.142 32.3078C203.585 32.3078 203.089 32.2112 202.653 32.0181C202.218 31.8211 201.873 31.5313 201.619 31.1487C201.369 30.7624 201.244 30.2813 201.244 29.7056C201.244 29.2207 201.333 28.8135 201.511 28.484C201.689 28.1544 201.932 27.8893 202.239 27.6885C202.545 27.4878 202.894 27.3362 203.284 27.234C203.678 27.1317 204.091 27.0597 204.523 27.0181C205.03 26.965 205.439 26.9158 205.75 26.8703C206.061 26.8211 206.286 26.7491 206.426 26.6544C206.566 26.5597 206.636 26.4196 206.636 26.234V26.1999C206.636 25.84 206.523 25.5616 206.295 25.3647C206.072 25.1677 205.754 25.0692 205.341 25.0692C204.905 25.0692 204.559 25.1658 204.301 25.359C204.044 25.5484 203.873 25.787 203.79 26.0749L201.551 25.8931C201.665 25.3628 201.888 24.9044 202.222 24.5181C202.555 24.1279 202.985 23.8287 203.511 23.6203C204.042 23.4082 204.655 23.3022 205.352 23.3022C205.837 23.3022 206.301 23.359 206.744 23.4726C207.191 23.5862 207.587 23.7624 207.932 24.001C208.28 24.2397 208.555 24.5465 208.756 24.9215C208.956 25.2927 209.057 25.7378 209.057 26.2567V32.1431H206.761V30.9328H206.693C206.553 31.2056 206.366 31.4461 206.131 31.6544C205.896 31.859 205.614 32.02 205.284 32.1374C204.955 32.251 204.574 32.3078 204.142 32.3078ZM204.835 30.6374C205.191 30.6374 205.506 30.5673 205.778 30.4272C206.051 30.2832 206.265 30.09 206.42 29.8476C206.576 29.6052 206.653 29.3306 206.653 29.0237V28.0976C206.578 28.1469 206.473 28.1923 206.341 28.234C206.212 28.2719 206.066 28.3078 205.903 28.3419C205.741 28.3722 205.578 28.4006 205.415 28.4272C205.252 28.4499 205.104 28.4707 204.972 28.4897C204.688 28.5313 204.439 28.5976 204.227 28.6885C204.015 28.7794 203.85 28.9025 203.733 29.0578C203.616 29.2094 203.557 29.3987 203.557 29.626C203.557 29.9556 203.676 30.2075 203.915 30.3817C204.157 30.5522 204.464 30.6374 204.835 30.6374ZM218.57 35.5976C217.786 35.5976 217.113 35.4897 216.553 35.2737C215.996 35.0616 215.553 34.7719 215.223 34.4044C214.893 34.037 214.679 33.6241 214.581 33.1658L216.82 32.8647C216.888 33.0389 216.996 33.2018 217.143 33.3533C217.291 33.5048 217.486 33.626 217.729 33.7169C217.975 33.8116 218.274 33.859 218.626 33.859C219.153 33.859 219.587 33.7302 219.928 33.4726C220.272 33.2188 220.445 32.7927 220.445 32.1942V30.5976H220.342C220.236 30.84 220.077 31.0692 219.865 31.2851C219.653 31.501 219.38 31.6772 219.047 31.8135C218.714 31.9499 218.316 32.0181 217.854 32.0181C217.198 32.0181 216.602 31.8666 216.064 31.5635C215.53 31.2567 215.104 30.7889 214.786 30.1601C214.471 29.5275 214.314 28.7283 214.314 27.7624C214.314 26.7737 214.475 25.948 214.797 25.2851C215.119 24.6222 215.547 24.126 216.081 23.7965C216.619 23.4669 217.208 23.3022 217.848 23.3022C218.337 23.3022 218.746 23.3855 219.075 23.5522C219.405 23.715 219.67 23.9196 219.871 24.1658C220.075 24.4082 220.232 24.6469 220.342 24.8817H220.433V23.4158H222.837V32.2283C222.837 32.9707 222.655 33.5919 222.291 34.0919C221.928 34.5919 221.424 34.9669 220.78 35.2169C220.14 35.4707 219.403 35.5976 218.57 35.5976ZM218.621 30.1999C219.011 30.1999 219.34 30.1033 219.609 29.9101C219.882 29.7131 220.09 29.4328 220.234 29.0692C220.382 28.7018 220.456 28.2624 220.456 27.751C220.456 27.2397 220.384 26.7965 220.24 26.4215C220.096 26.0427 219.888 25.7491 219.615 25.5408C219.342 25.3325 219.011 25.2283 218.621 25.2283C218.223 25.2283 217.888 25.3362 217.615 25.5522C217.342 25.7643 217.136 26.0597 216.996 26.4385C216.856 26.8173 216.786 27.2548 216.786 27.751C216.786 28.2548 216.856 28.6904 216.996 29.0578C217.14 29.4215 217.346 29.7037 217.615 29.9044C217.888 30.1014 218.223 30.1999 218.621 30.1999ZM224.763 32.1431V23.4158H227.109V24.9385H227.2C227.359 24.3969 227.626 23.9878 228.001 23.7112C228.376 23.4309 228.808 23.2908 229.297 23.2908C229.418 23.2908 229.549 23.2984 229.689 23.3135C229.829 23.3287 229.952 23.3495 230.058 23.376V25.5237C229.945 25.4897 229.787 25.4594 229.587 25.4328C229.386 25.4063 229.202 25.3931 229.036 25.3931C228.679 25.3931 228.361 25.4707 228.081 25.626C227.804 25.7775 227.585 25.9897 227.422 26.2624C227.263 26.5351 227.183 26.8495 227.183 27.2056V32.1431H224.763ZM233.548 32.3078C232.991 32.3078 232.495 32.2112 232.06 32.0181C231.624 31.8211 231.279 31.5313 231.026 31.1487C230.776 30.7624 230.651 30.2813 230.651 29.7056C230.651 29.2207 230.74 28.8135 230.918 28.484C231.096 28.1544 231.338 27.8893 231.645 27.6885C231.952 27.4878 232.3 27.3362 232.69 27.234C233.084 27.1317 233.497 27.0597 233.929 27.0181C234.437 26.965 234.846 26.9158 235.156 26.8703C235.467 26.8211 235.692 26.7491 235.832 26.6544C235.973 26.5597 236.043 26.4196 236.043 26.234V26.1999C236.043 25.84 235.929 25.5616 235.702 25.3647C235.478 25.1677 235.16 25.0692 234.747 25.0692C234.312 25.0692 233.965 25.1658 233.707 25.359C233.45 25.5484 233.279 25.787 233.196 26.0749L230.957 25.8931C231.071 25.3628 231.295 24.9044 231.628 24.5181C231.961 24.1279 232.391 23.8287 232.918 23.6203C233.448 23.4082 234.062 23.3022 234.759 23.3022C235.243 23.3022 235.707 23.359 236.151 23.4726C236.598 23.5862 236.993 23.7624 237.338 24.001C237.687 24.2397 237.961 24.5465 238.162 24.9215C238.363 25.2927 238.463 25.7378 238.463 26.2567V32.1431H236.168V30.9328H236.099C235.959 31.2056 235.772 31.4461 235.537 31.6544C235.302 31.859 235.02 32.02 234.69 32.1374C234.361 32.251 233.98 32.3078 233.548 32.3078ZM234.241 30.6374C234.598 30.6374 234.912 30.5673 235.185 30.4272C235.457 30.2832 235.671 30.09 235.827 29.8476C235.982 29.6052 236.06 29.3306 236.06 29.0237V28.0976C235.984 28.1469 235.88 28.1923 235.747 28.234C235.618 28.2719 235.473 28.3078 235.31 28.3419C235.147 28.3722 234.984 28.4006 234.821 28.4272C234.658 28.4499 234.51 28.4707 234.378 28.4897C234.094 28.5313 233.846 28.5976 233.634 28.6885C233.421 28.7794 233.257 28.9025 233.139 29.0578C233.022 29.2094 232.963 29.3987 232.963 29.626C232.963 29.9556 233.082 30.2075 233.321 30.3817C233.563 30.5522 233.87 30.6374 234.241 30.6374ZM233.98 22.2908L235.185 19.7056H237.423L235.69 22.2908H233.98ZM244.983 23.4158V25.234H239.727V23.4158H244.983ZM240.92 21.3249H243.341V29.4612C243.341 29.6847 243.375 29.859 243.443 29.984C243.511 30.1052 243.606 30.1904 243.727 30.2397C243.852 30.2889 243.996 30.3135 244.159 30.3135C244.273 30.3135 244.386 30.3041 244.5 30.2851C244.614 30.2624 244.701 30.2453 244.761 30.234L245.142 32.0351C245.021 32.073 244.85 32.1166 244.631 32.1658C244.411 32.2188 244.144 32.251 243.83 32.2624C243.246 32.2851 242.735 32.2075 242.295 32.0294C241.86 31.8514 241.521 31.5749 241.278 31.1999C241.036 30.8249 240.917 30.3514 240.92 29.7794V21.3249ZM246.56 32.1431V23.4158H248.98V32.1431H246.56ZM247.776 22.2908C247.416 22.2908 247.107 22.1715 246.849 21.9328C246.596 21.6904 246.469 21.4006 246.469 21.0635C246.469 20.7302 246.596 20.4442 246.849 20.2056C247.107 19.9631 247.416 19.8419 247.776 19.8419C248.135 19.8419 248.442 19.9631 248.696 20.2056C248.954 20.4442 249.082 20.7302 249.082 21.0635C249.082 21.4006 248.954 21.6904 248.696 21.9328C248.442 22.1715 248.135 22.2908 247.776 22.2908ZM258.18 25.9044L255.964 26.0408C255.927 25.8514 255.845 25.6809 255.72 25.5294C255.595 25.3741 255.43 25.251 255.226 25.1601C255.025 25.0654 254.785 25.0181 254.504 25.0181C254.129 25.0181 253.813 25.0976 253.555 25.2567C253.298 25.412 253.169 25.6203 253.169 25.8817C253.169 26.09 253.252 26.2662 253.419 26.4101C253.586 26.5541 253.872 26.6696 254.277 26.7567L255.857 27.0749C256.705 27.2491 257.338 27.5294 257.754 27.9158C258.171 28.3022 258.379 28.8097 258.379 29.4385C258.379 30.0105 258.211 30.5124 257.874 30.9442C257.54 31.376 257.082 31.7131 256.499 31.9556C255.919 32.1942 255.25 32.3135 254.493 32.3135C253.338 32.3135 252.417 32.073 251.732 31.5919C251.05 31.1071 250.65 30.448 250.533 29.6147L252.913 29.4897C252.985 29.8419 253.16 30.1109 253.436 30.2965C253.713 30.4783 254.067 30.5692 254.499 30.5692C254.923 30.5692 255.264 30.4878 255.521 30.3249C255.783 30.1582 255.915 29.9442 255.919 29.6828C255.915 29.4631 255.822 29.2832 255.641 29.1431C255.459 28.9991 255.179 28.8893 254.8 28.8135L253.288 28.5124C252.436 28.3419 251.802 28.0465 251.385 27.626C250.972 27.2056 250.766 26.6696 250.766 26.0181C250.766 25.4575 250.917 24.9745 251.22 24.5692C251.527 24.1639 251.957 23.8514 252.51 23.6317C253.067 23.412 253.718 23.3022 254.464 23.3022C255.567 23.3022 256.434 23.5351 257.067 24.001C257.703 24.4669 258.074 25.1014 258.18 25.9044Z" fill="white"/>
</svg>
